<svg width="16" height="16" viewBox="0 0 16 16" fill="none" xmlns="http://www.w3.org/2000/svg">
<path d="M8 0.320801C3.875 0.320801 0.5 3.6958 0.5 7.8208C0.5 11.9458 3.875 15.3208 8 15.3208C12.125 15.3208 15.5 11.9458 15.5 7.8208C15.5 3.6958 12.125 0.320801 8 0.320801ZM14.1875 7.4458C12.5625 7.1958 11.125 7.1958 9.75 7.3833C9.625 7.0083 9.4375 6.6958 9.25 6.3208C10.6875 5.6958 11.875 4.8208 12.6875 3.7583C13.5625 4.8208 14.125 6.0708 14.1875 7.4458ZM11.75 2.9458C11 3.9458 9.9375 4.6958 8.625 5.2583C8 4.0708 7.3125 2.9458 6.5 1.8208C7 1.6958 7.5 1.6333 8 1.6333C9.4375 1.6333 10.75 2.1333 11.75 2.9458ZM5.1875 2.3208C6 3.3833 6.75 4.5083 7.375 5.6958C5.875 6.1333 4.0625 6.3208 2 6.3833C2.4375 4.5708 3.625 3.1333 5.1875 2.3208ZM1.8125 7.8208V7.6333C4.1875 7.6333 6.3125 7.3833 8 6.8208C8.125 7.1333 8.3125 7.4458 8.4375 7.6958C6.3125 8.3833 4.5625 9.6958 3.25 11.7583C2.375 10.6958 1.8125 9.3208 1.8125 7.8208ZM4.1875 12.6958C5.4375 10.7583 7 9.5083 8.9375 8.9458C9.5 10.4458 9.9375 12.0083 10.1875 13.6333C8.125 14.3833 5.875 14.0083 4.1875 12.6958ZM11.4375 12.9458C11.1875 11.4458 10.75 10.0083 10.25 8.6333C11.4375 8.4458 12.6875 8.5083 14.125 8.7583C13.8125 10.5083 12.875 12.0083 11.4375 12.9458Z" fill="#1F1F1F"/>
</svg>
