<svg width="15" height="16" viewBox="0 0 15 16" fill="none" xmlns="http://www.w3.org/2000/svg">
<path fill-rule="evenodd" clip-rule="evenodd" d="M4.40795 0.865801C5.20773 0.828983 5.46273 0.820801 7.5 0.820801C9.53727 0.820801 9.79227 0.829664 10.5914 0.865801C11.3905 0.901937 11.9359 1.02944 12.4132 1.21421C12.913 1.40307 13.3664 1.6983 13.7414 2.08012C14.1232 2.45444 14.4177 2.90716 14.6059 3.40762C14.7914 3.88489 14.9182 4.43035 14.955 5.22807C14.9918 6.02921 15 6.28421 15 8.3208C15 10.3581 14.9911 10.6131 14.955 11.4128C14.9189 12.2106 14.7914 12.756 14.6059 13.2333C14.4177 13.7338 14.1227 14.1873 13.7414 14.5622C13.3664 14.944 12.913 15.2385 12.4132 15.4267C11.9359 15.6122 11.3905 15.739 10.5927 15.7758C9.79227 15.8126 9.53727 15.8208 7.5 15.8208C5.46273 15.8208 5.20773 15.8119 4.40795 15.7758C3.61023 15.7397 3.06477 15.6122 2.5875 15.4267C2.08699 15.2385 1.63351 14.9435 1.25864 14.5622C0.877077 14.1876 0.581806 13.7344 0.393409 13.234C0.208636 12.7567 0.0818182 12.2113 0.045 11.4135C0.00818181 10.6124 0 10.3574 0 8.3208C0 6.28353 0.00886363 6.02853 0.045 5.22944C0.0811364 4.43035 0.208636 3.88489 0.393409 3.40762C0.582084 2.90722 0.877581 2.45397 1.25932 2.07944C1.63366 1.69796 2.08669 1.40269 2.58682 1.21421C3.06409 1.02944 3.60955 0.902619 4.40727 0.865801H4.40795ZM10.5307 2.2158C9.73977 2.17966 9.5025 2.17216 7.5 2.17216C5.4975 2.17216 5.26023 2.17966 4.46932 2.2158C3.73773 2.24921 3.34091 2.37126 3.07636 2.47421C2.72659 2.61057 2.47636 2.77216 2.21386 3.03466C1.96503 3.27675 1.77353 3.57145 1.65341 3.89716C1.55045 4.16171 1.42841 4.55853 1.395 5.29012C1.35886 6.08103 1.35136 6.3183 1.35136 8.3208C1.35136 10.3233 1.35886 10.5606 1.395 11.3515C1.42841 12.0831 1.55045 12.4799 1.65341 12.7444C1.77341 13.0697 1.965 13.3649 2.21386 13.6069C2.45591 13.8558 2.75114 14.0474 3.07636 14.1674C3.34091 14.2703 3.73773 14.3924 4.46932 14.4258C5.26023 14.4619 5.49682 14.4694 7.5 14.4694C9.50318 14.4694 9.73977 14.4619 10.5307 14.4258C11.2623 14.3924 11.6591 14.2703 11.9236 14.1674C12.2734 14.031 12.5236 13.8694 12.7861 13.6069C13.035 13.3649 13.2266 13.0697 13.3466 12.7444C13.4495 12.4799 13.5716 12.0831 13.605 11.3515C13.6411 10.5606 13.6486 10.3233 13.6486 8.3208C13.6486 6.3183 13.6411 6.08103 13.605 5.29012C13.5716 4.55853 13.4495 4.16171 13.3466 3.89716C13.2102 3.54739 13.0486 3.29716 12.7861 3.03466C12.544 2.78585 12.2493 2.59435 11.9236 2.47421C11.6591 2.37126 11.2623 2.24921 10.5307 2.2158ZM6.54205 10.6328C7.07704 10.8555 7.67276 10.8856 8.22745 10.7179C8.78215 10.5502 9.2614 10.1951 9.58337 9.71324C9.90534 9.23142 10.05 8.65276 9.99276 8.0761C9.93548 7.49944 9.67978 6.96056 9.26932 6.55148C9.00766 6.28999 8.69128 6.08976 8.34295 5.96522C7.99463 5.84067 7.62302 5.79491 7.25488 5.83122C6.88675 5.86753 6.53124 5.98501 6.21396 6.17521C5.89667 6.3654 5.62551 6.62358 5.41998 6.93115C5.21445 7.23873 5.07967 7.58804 5.02535 7.95396C4.97103 8.31987 4.99851 8.69327 5.10582 9.04729C5.21313 9.40131 5.3976 9.72713 5.64595 10.0013C5.89429 10.2755 6.20034 10.4912 6.54205 10.6328ZM4.77409 5.59489C5.13206 5.23692 5.55704 4.95296 6.02475 4.75923C6.49246 4.5655 6.99375 4.46578 7.5 4.46578C8.00625 4.46578 8.50754 4.5655 8.97525 4.75923C9.44296 4.95296 9.86794 5.23692 10.2259 5.59489C10.5839 5.95286 10.8678 6.37784 11.0616 6.84555C11.2553 7.31326 11.355 7.81455 11.355 8.3208C11.355 8.82705 11.2553 9.32834 11.0616 9.79605C10.8678 10.2638 10.5839 10.6887 10.2259 11.0467C9.50295 11.7697 8.52241 12.1758 7.5 12.1758C6.47759 12.1758 5.49705 11.7697 4.77409 11.0467C4.05113 10.3238 3.64498 9.34321 3.64498 8.3208C3.64498 7.29839 4.05113 6.31785 4.77409 5.59489ZM12.21 5.03989C12.2987 4.95621 12.3697 4.85558 12.4188 4.74396C12.468 4.63235 12.4942 4.51201 12.496 4.39007C12.4977 4.26814 12.475 4.14708 12.4292 4.03408C12.3833 3.92108 12.3153 3.81842 12.2291 3.73219C12.1428 3.64596 12.0402 3.57791 11.9272 3.53206C11.8142 3.48622 11.6931 3.46351 11.5712 3.46529C11.4492 3.46707 11.3289 3.49329 11.2173 3.54241C11.1057 3.59153 11.005 3.66255 10.9214 3.75126C10.7586 3.92378 10.6695 4.15293 10.673 4.39007C10.6764 4.62721 10.7722 4.85367 10.9399 5.02138C11.1076 5.18908 11.334 5.28482 11.5712 5.28828C11.8083 5.29173 12.0375 5.20263 12.21 5.03989Z" fill="#1F1F1F"/>
</svg>
