<svg width="15" height="13" viewBox="0 0 15 13" fill="none" xmlns="http://www.w3.org/2000/svg">
<path d="M15 2.24625C14.4484 2.48057 13.8481 2.64921 13.2298 2.71489C13.8717 2.33933 14.3525 1.74601 14.5818 1.04625C13.9794 1.39913 13.3195 1.64658 12.6313 1.77761C12.3437 1.47482 11.9958 1.2336 11.6094 1.06899C11.2229 0.904373 10.8062 0.819892 10.3852 0.820808C8.68165 0.820808 7.31162 2.18057 7.31162 3.84921C7.31162 4.08353 7.34046 4.31785 7.38733 4.54329C4.83656 4.41193 2.56159 3.21193 1.04915 1.37465C0.77357 1.83817 0.629156 2.36594 0.630934 2.90306C0.630934 3.95394 1.17354 4.88057 2.00096 5.42554C1.51335 5.40663 1.03715 5.27465 0.611104 5.04033V5.07761C0.611104 6.54921 1.66747 7.76873 3.07535 8.04921C2.81101 8.11682 2.53907 8.15141 2.26595 8.15216C2.06586 8.15216 1.87658 8.13264 1.68549 8.10601C2.07487 9.30601 3.20875 10.1776 4.55895 10.206C3.50258 11.0208 2.17943 11.5001 0.742699 11.5001C0.484918 11.5001 0.246966 11.4912 0 11.4628C1.36282 12.3238 2.97981 12.8208 4.72119 12.8208C10.3744 12.8208 13.4677 8.20897 13.4677 4.20601C13.4677 4.07465 13.4677 3.94329 13.4587 3.81193C14.0572 3.38057 14.5818 2.84625 15 2.24625Z" fill="#1F1F1F"/>
</svg>
